<?xml version="1.0" standalone="no"?>
<!DOCTYPE svg PUBLIC "-//W3C//DTD SVG 20010904//EN"
 "http://www.w3.org/TR/2001/REC-SVG-20010904/DTD/svg10.dtd">
<svg version="1.0" xmlns="http://www.w3.org/2000/svg"
 width="512.000000pt" height="512.000000pt" viewBox="0 0 512.000000 512.000000"
 preserveAspectRatio="xMidYMid meet">
<metadata>
Created by potrace 1.14, written by Peter Selinger 2001-2017
</metadata>
<g transform="translate(0.000000,512.000000) scale(0.100000,-0.100000)"
fill="#000000" stroke="none">
<path d="M0 2560 l0 -2560 2560 0 2560 0 0 2560 0 2560 -2560 0 -2560 0 0
-2560z m1775 2140 c84 -52 83 -181 0 -236 -17 -11 -63 -19 -137 -25 -200 -15
-357 -75 -502 -192 -188 -151 -305 -373 -323 -612 -6 -88 -17 -117 -58 -155
-22 -21 -37 -25 -85 -25 -48 0 -63 4 -85 25 -50 47 -58 75 -51 176 41 581 541
1058 1115 1063 77 1 99 -2 126 -19z m-19 -456 c68 -33 95 -125 54 -191 -30
-50 -62 -65 -157 -74 -181 -16 -323 -134 -367 -304 -9 -32 -16 -75 -16 -95 0
-105 -125 -175 -211 -117 -54 36 -71 79 -65 163 14 181 112 366 255 481 149
120 400 188 507 137z m1074 -288 c267 -63 475 -181 668 -380 187 -193 301
-408 358 -677 13 -59 18 -130 18 -240 l1 -157 50 -16 c187 -59 358 -252 400
-451 44 -211 -14 -406 -169 -561 -135 -135 -264 -183 -487 -184 l-116 0 -38
-77 c-53 -107 -170 -225 -275 -277 -178 -87 -372 -87 -550 0 -105 52 -222 170
-275 277 l-38 77 -68 0 -67 0 -64 -63 c-184 -184 -452 -184 -636 0 l-64 63
-101 0 c-209 1 -341 52 -473 184 -155 155 -213 350 -169 561 42 199 213 392
400 451 l50 16 1 157 c0 110 5 181 18 240 57 269 171 484 358 677 224 230 475
357 813 408 17 2 102 3 190 1 127 -3 182 -9 265 -29z"/>
</g>
</svg>
